<svg xmlns="http://www.w3.org/2000/svg" version="1.1" xmlns:xlink="http://www.w3.org/1999/xlink" xmlns:svgjs="http://svgjs.dev/svgjs" width="1000" height="1204" viewBox="0 0 1000 1204"><g transform="matrix(1,0,0,1,1.1223747695131578,0.48744939271250587)"><svg viewBox="0 0 205 247" data-background-color="#ffffff" preserveAspectRatio="xMidYMid meet" height="1204" width="1000" xmlns="http://www.w3.org/2000/svg" xmlns:xlink="http://www.w3.org/1999/xlink"><g id="tight-bounds" transform="matrix(1,0,0,1,-0.23008682775019906,-0.09999999999999432)"><svg viewBox="0 0 205.46017365550037 247.2" height="247.2" width="205.46017365550037"><g><svg></svg></g><g><svg viewBox="0 0 205.46017365550037 247.2" height="247.2" width="205.46017365550037"><g transform="matrix(1,0,0,1,0,47.215199999999996)"><svg viewBox="0 0 205.46017365550037 152.7696" height="152.7696" width="205.46017365550037"><g><svg viewBox="0 0 244.43135999999998 181.74656640399624" height="152.7696" width="205.46017365550037"><g transform="matrix(1,0,0,1,0,135.22840638097466)"><svg viewBox="0 0 244.43135999999998 46.51816002302158" height="46.51816002302158" width="244.43135999999998"><g><svg viewBox="0 0 244.43135999999998 46.51816002302158" height="46.51816002302158" width="244.43135999999998"><g><svg viewBox="0 0 244.43135999999998 46.51816002302158" height="46.51816002302158" width="244.43135999999998"><g transform="matrix(1,0,0,1,0,0)"><svg width="244.43135999999998" viewBox="3.0799999237060547 -37.349998474121094 254.49000549316406 48.43000030517578" height="46.51816002302158" data-palette-color="#1c7fa6"><path d="M3.08 0L8.84-37.35 15.21-37.35 23.71-9.77 25.15-3.81 26.54-9.79 34.74-37.35 40.82-37.35 46.85 0 42.7 0 38.16-28.22 37.48-34.81 35.99-28.17 27.56-0.02 22.75-0.02 13.96-28.32 12.23-34.81 11.4-28.27 7.28 0 3.08 0ZM53.78 10.21L54.88 7.03Q56.66 7.67 57.8 7.67 58.93 7.67 59.29 7.6 59.64 7.54 60.01 7.35L60.01 7.35Q60.86 6.88 61.28 5.83L61.28 5.83Q62.3 3.34 63.06 0.37L63.06 0.37 51.85-29.05 56.37-29.05 63.94-7.64 65.09-3.88 66.14-7.67 72.82-29.05 77.07-29.05 64.82 6.88Q63.47 11.08 58.62 11.08L58.62 11.08Q55.54 11.08 53.78 10.21L53.78 10.21ZM118.64-5.03L119.84-1.54Q114.79 0.49 108.68 0.49L108.68 0.49Q105.14 0.49 102.68-0.24L102.68-0.24Q98.75-1.37 97.45-4.88L97.45-4.88Q96.26-8.18 96.26-14.65L96.26-14.65 96.26-15.89Q96.26-23.63 99.48-26.76L99.48-26.76Q102.39-29.54 109.17-29.54L109.17-29.54Q115.79-29.54 118.21-26.27L118.21-26.27Q119.38-24.68 119.76-22.42 120.13-20.17 120.13-18.12L120.13-18.12Q120.13-14.92 119.99-13.16L119.99-13.16Q116.55-13.01 113.81-13.01L113.81-13.01Q113.81-13.01 109.88-13.01L109.88-13.01Q103.73-13.01 100.41-13.55L100.41-13.55Q100.41-7.93 101.82-5.71L101.82-5.71Q103.56-3 108.73-3 113.91-3 118.64-5.03L118.64-5.03ZM100.41-16.41L116.01-16.41 116.01-18.75Q116.01-22.58 114.52-24.22L114.52-24.22Q112.86-26.05 108.78-26.05L108.78-26.05Q103.9-26.05 102.12-23.93L102.12-23.93Q100.41-21.9 100.41-16.41L100.41-16.41ZM128.68-2.39L130.43-5.76Q135.46-2.95 140.54-2.95L140.54-2.95Q144.77-2.95 145.5-5.96L145.5-5.96Q145.74-6.98 145.74-8.46 145.74-9.94 145.4-10.75 145.06-11.57 144.25-11.98 143.45-12.38 142.12-12.57 140.79-12.77 138.74-13.12 136.68-13.48 134.98-13.92 133.27-14.36 132.07-15.19L132.07-15.19Q129.53-16.97 129.63-21.19L129.63-21.19 129.63-21.8Q129.63-26.25 132.56-28.13L132.56-28.13Q135.39-29.98 141.91-29.39L141.91-29.39Q146.35-28.98 148.99-27.86L148.99-27.86 147.84-24.17Q144.91-25.42 140.81-25.98L140.81-25.98Q139.54-26.15 138.43-26.15 137.32-26.15 136.42-25.98 135.51-25.81 134.9-25.34L134.9-25.34Q133.73-24.39 133.68-21.8L133.68-21.8Q133.61-18.75 135.39-17.92L135.39-17.92Q137.1-17.11 139.44-16.81 141.79-16.5 143.28-16.27 144.77-16.04 145.99-15.65 147.21-15.26 148.09-14.4L148.09-14.4Q149.92-12.67 149.87-8.37L149.87-8.37Q149.75-0.88 143.62 0.17L143.62 0.17Q141.76 0.49 139.91 0.49 138.05 0.49 136.5 0.26 134.95 0.02 133.53-0.39L133.53-0.39Q130.85-1.15 128.68-2.39L128.68-2.39ZM172.45-4.57L173.84-1.39Q169.86 0.49 166.49 0.49L166.49 0.49Q160.39 0.49 159.56-4.74L159.56-4.74Q159.36-5.98 159.36-8.35L159.36-8.35 159.36-25.66 155.85-25.66 155.85-28.66 159.36-29.05 160-35.69 163.39-35.69 163.39-29.05 171.86-29.05 171.86-25.66 163.39-25.66 163.39-8.42Q163.39-5.42 163.83-4.59L163.83-4.59Q164.64-3.08 167.05-3.08 169.47-3.08 172.45-4.57L172.45-4.57ZM202.62-19.41L202.62-10.3Q202.62-5.44 203.09-0.2L203.09-0.2 199.47 0.1 198.86-3.3Q195.76-0.81 190.66 0.17L190.66 0.17Q189 0.49 187.7 0.49 186.41 0.49 185.42 0.37 184.43 0.24 183.52-0.11 182.6-0.46 181.82-1.1 181.04-1.73 180.45-2.78L180.45-2.78Q179.21-5 179.21-8.12 179.21-11.23 179.66-12.95 180.11-14.67 181.16-15.82L181.16-15.82Q183.24-18.09 188.14-18.09 193.05-18.09 198.62-16.24L198.62-16.24 198.62-19.41Q198.62-24.71 194.25-25.68L194.25-25.68Q192.83-26 191-26L191-26Q186.83-26 182.33-24.34L182.33-24.34 181.43-27.86Q182.68-28.69 187.78-29.35L187.78-29.35Q189.39-29.54 191.65-29.54 193.91-29.54 196.08-29 198.25-28.47 199.69-27.25L199.69-27.25Q202.62-24.83 202.62-19.41L202.62-19.41ZM198.52-13.18L198.52-13.18Q192.81-14.62 187.97-14.62L187.97-14.62Q184.99-14.62 184.02-12.92L184.02-12.92Q183.36-11.72 183.36-9.38 183.36-7.03 183.62-5.98 183.87-4.93 184.46-4.25L184.46-4.25Q185.61-2.95 188.24-2.95L188.24-2.95Q192.37-2.95 196.42-5.08L196.42-5.08Q197.67-5.71 198.67-6.49L198.67-6.49Q198.52-9.13 198.52-13.18ZM226.59-4.57L227.99-1.39Q224.01 0.49 220.64 0.49L220.64 0.49Q214.53 0.49 213.7-4.74L213.7-4.74Q213.51-5.98 213.51-8.35L213.51-8.35 213.51-25.66 209.99-25.66 209.99-28.66 213.51-29.05 214.14-35.69 217.54-35.69 217.54-29.05 226.01-29.05 226.01-25.66 217.54-25.66 217.54-8.42Q217.54-5.42 217.98-4.59L217.98-4.59Q218.78-3.08 221.2-3.08 223.62-3.08 226.59-4.57L226.59-4.57ZM256.08-5.03L257.28-1.54Q252.23 0.49 246.12 0.49L246.12 0.49Q242.58 0.49 240.12-0.24L240.12-0.24Q236.19-1.37 234.89-4.88L234.89-4.88Q233.7-8.18 233.7-14.65L233.7-14.65 233.7-15.89Q233.7-23.63 236.92-26.76L236.92-26.76Q239.82-29.54 246.61-29.54L246.61-29.54Q253.23-29.54 255.64-26.27L255.64-26.27Q256.82-24.68 257.19-22.42 257.57-20.17 257.57-18.12L257.57-18.12Q257.57-14.92 257.43-13.16L257.43-13.16Q253.98-13.01 251.25-13.01L251.25-13.01Q251.25-13.01 247.32-13.01L247.32-13.01Q241.17-13.01 237.85-13.55L237.85-13.55Q237.85-7.93 239.26-5.71L239.26-5.71Q241-3 246.17-3 251.35-3 256.08-5.03L256.08-5.03ZM237.85-16.41L253.45-16.41 253.45-18.75Q253.45-22.58 251.96-24.22L251.96-24.22Q250.3-26.05 246.22-26.05L246.22-26.05Q241.34-26.05 239.56-23.93L239.56-23.93Q237.85-21.9 237.85-16.41L237.85-16.41Z" opacity="1" transform="matrix(1,0,0,1,0,0)" fill="#1c7fa6" class="undefined-text-0" data-fill-palette-color="primary" id="text-0"></path></svg></g></svg></g></svg></g></svg></g><g transform="matrix(1,0,0,1,65.5832979551075,0)"><svg viewBox="0 0 113.26476408978498 113.26476408978498" height="113.26476408978498" width="113.26476408978498"><g><svg></svg></g><g id="icon-0"><svg viewBox="0 0 113.26476408978498 113.26476408978498" height="113.26476408978498" width="113.26476408978498"><g><path d="M0 56.632c0-31.277 25.355-56.632 56.632-56.632 31.277 0 56.632 25.355 56.633 56.632 0 31.277-25.355 56.632-56.633 56.633-31.277 0-56.632-25.355-56.632-56.633zM56.632 109.07c28.96 0 52.437-23.477 52.438-52.438 0-28.96-23.477-52.437-52.438-52.437-28.96 0-52.437 23.477-52.437 52.437 0 28.96 23.477 52.437 52.437 52.438z" data-fill-palette-color="accent" fill="#1c7fa6" stroke="transparent"></path><ellipse rx="56.06605822444356" ry="56.06605822444356" cx="56.63238204489249" cy="56.63238204489249" fill="#1c7fa6" stroke="transparent" stroke-width="0" fill-opacity="1" data-fill-palette-color="accent"></ellipse></g><g transform="matrix(1,0,0,1,23.85932679113848,25.899959169839786)"><svg viewBox="0 0 65.54611050750802 61.464845750105404" height="61.464845750105404" width="65.54611050750802"><g><svg xmlns="http://www.w3.org/2000/svg" xmlns:xlink="http://www.w3.org/1999/xlink" version="1.1" x="0" y="0" viewBox="0 3.25 99.9749984741211 93.75" enable-background="new 0 0 100 100" xml:space="preserve" height="61.464845750105404" width="65.54611050750802" class="icon-s-0" data-fill-palette-color="quaternary" id="s-0"><g fill="#ffffff" data-fill-palette-color="quaternary"><path d="M76.807 73.834c-6.369 0-12.141 2.572-16.33 6.735 4.469 2.974 6.594 8.539 5.17 16.431h34.328C99.975 84.205 89.602 73.834 76.807 73.834z" fill="#ffffff" data-fill-palette-color="quaternary"></path><path d="M51.088 82.439C43.046 82.439 36.53 88.96 36.53 97h29.116C65.646 88.96 59.126 82.439 51.088 82.439z" fill="#ffffff" data-fill-palette-color="quaternary"></path></g><polygon points="86.682,8.988 86.682,3.25 67.216,3.25 67.216,8.988 54.658,8.988 54.675,11.671 54.671,11.671 54.671,50.426   60.847,56.482 60.847,15.357 67.496,15.357 67.496,67.202 73.672,67.202 73.672,15.357 80.333,15.357 80.333,67.202 86.509,67.202   86.509,15.357 93.605,15.357 93.605,71.563 99.975,77.113 99.975,8.988 " fill="#ffffff" data-fill-palette-color="quaternary"></polygon><g fill="#ffffff" data-fill-palette-color="quaternary"><path d="M51.084 56.997H21.633L18.368 97h11.793c0-11.539 9.388-20.925 20.927-20.925 1.51 0 2.98 0.167 4.4 0.473l0.503-0.497c1.522-1.512 3.187-2.818 4.95-3.945v-4.903L51.084 56.997z" fill="#ffffff" data-fill-palette-color="quaternary"></path><path d="M0 41.467V97h17.96 0.353V41.467L9.079 18.91 0 41.467zM13.874 50.455c0 2.547-2.064 4.615-4.619 4.615-2.55 0-4.615-2.068-4.615-4.615 0-2.55 2.064-4.614 4.615-4.614C11.81 45.841 13.874 47.905 13.874 50.455z" fill="#ffffff" data-fill-palette-color="quaternary"></path></g></svg></g></svg></g></svg></g></svg></g><g></g></svg></g></svg></g><path d="M0 41.215L0 1 205.46 1 205.46 41.215 201.934 41.215 201.934 4.526 3.526 4.526 3.526 41.215 0 41.215M0 205.985L0 246.2 205.46 246.2 205.46 205.985 201.934 205.985 201.934 242.674 3.526 242.674 3.526 205.985 0 205.985" fill="#1c7fa6" stroke="transparent" data-fill-palette-color="primary"></path></svg></g><defs></defs></svg><rect width="205.46017365550037" height="247.2" fill="none" stroke="none" visibility="hidden"></rect></g></svg></g></svg>